<svg width="1440" height="1024" viewBox="0 0 1440 1024" fill="none" xmlns="http://www.w3.org/2000/svg">
<g clip-path="url(#clip0_5682_7482)">
<rect width="1440" height="1024" fill="url(#paint0_linear_5682_7482)"/>
<g filter="url(#filter0_d_5682_7482)">
<path d="M881.5 0H1440V1024H845L723 585L881.5 0Z" fill="white"/>
</g>
<path d="M956.81 166V119.85H988.66V128.17H961.23L966.69 122.515V143.64L961.23 139.35H987.49V147.54H961.23L966.69 143.25V166H956.81ZM995.213 166V119.85H1015.43C1018.81 119.85 1021.73 120.413 1024.2 121.54C1026.72 122.667 1028.64 124.27 1029.99 126.35C1031.33 128.387 1032 130.813 1032 133.63C1032 135.753 1031.55 137.638 1030.64 139.285C1029.77 140.932 1028.56 142.275 1027 143.315C1025.48 144.355 1023.73 145.005 1021.73 145.265L1021.54 144.68C1024.61 144.68 1026.95 145.352 1028.56 146.695C1030.16 147.995 1031.07 150.01 1031.29 152.74L1032.46 166H1022.38L1021.54 154.3C1021.41 152.523 1020.84 151.223 1019.85 150.4C1018.89 149.533 1017.25 149.1 1014.91 149.1H1005.09V166H995.213ZM1005.09 140.845H1014.32C1016.71 140.845 1018.55 140.303 1019.85 139.22C1021.19 138.093 1021.86 136.512 1021.86 134.475C1021.86 132.395 1021.19 130.835 1019.85 129.795C1018.5 128.712 1016.55 128.17 1014 128.17H1005.09V140.845ZM1040.54 166V119.85H1072.65V128.17H1050.42V138.765H1071.87V146.955H1050.42V157.68H1073.17V166H1040.54ZM1080.78 166V119.85H1112.89V128.17H1090.66V138.765H1112.11V146.955H1090.66V157.68H1113.41V166H1080.78Z" fill="#142345"/>
<path d="M1146 114C1146 111.239 1148.24 109 1151 109H1353.97C1355.27 109 1356.52 109.507 1357.46 110.414L1387.31 139.414C1389.33 141.377 1389.33 144.623 1387.31 146.586L1357.46 175.586C1356.52 176.493 1355.27 177 1353.97 177H1151C1148.24 177 1146 174.761 1146 172V114Z" fill="url(#paint1_linear_5682_7482)"/>
<rect x="1359" y="135" width="15" height="15" rx="7.5" fill="white"/>
<path d="M1171 160V124.5H1177.5V158L1173.95 154.35H1194.35V160H1171ZM1211.65 160.8C1208.78 160.8 1206.26 160.25 1204.1 159.15C1201.96 158.05 1200.31 156.5 1199.15 154.5C1198.01 152.467 1197.45 150.067 1197.45 147.3V124.45H1203.95V147.3C1203.95 149.8 1204.61 151.733 1205.95 153.1C1207.28 154.467 1209.18 155.15 1211.65 155.15C1214.11 155.15 1216.01 154.467 1217.35 153.1C1218.71 151.733 1219.4 149.8 1219.4 147.3V124.45H1225.9V147.3C1225.9 150.067 1225.31 152.467 1224.15 154.5C1222.98 156.5 1221.33 158.05 1219.2 159.15C1217.1 160.25 1214.58 160.8 1211.65 160.8ZM1233.89 160V124.5H1241.49L1256.79 151.2V124.5H1263.29V160H1255.49L1240.39 134.05V160H1233.89ZM1285.11 160.8C1281.88 160.8 1279.03 160.067 1276.56 158.6C1274.1 157.1 1272.16 154.983 1270.76 152.25C1269.36 149.483 1268.66 146.167 1268.66 142.3C1268.66 138.5 1269.35 135.217 1270.71 132.45C1272.08 129.65 1274 127.5 1276.46 126C1278.93 124.467 1281.83 123.7 1285.16 123.7C1289.7 123.7 1293.21 124.833 1295.71 127.1C1298.21 129.333 1299.85 132.467 1300.61 136.5L1293.81 136.85C1293.38 134.517 1292.45 132.683 1291.01 131.35C1289.58 130.017 1287.63 129.35 1285.16 129.35C1283.16 129.35 1281.43 129.883 1279.96 130.95C1278.5 132.017 1277.36 133.517 1276.56 135.45C1275.76 137.383 1275.36 139.667 1275.36 142.3C1275.36 144.967 1275.76 147.267 1276.56 149.2C1277.4 151.1 1278.55 152.567 1280.01 153.6C1281.48 154.633 1283.18 155.15 1285.11 155.15C1287.75 155.15 1289.78 154.433 1291.21 153C1292.68 151.533 1293.61 149.533 1294.01 147L1300.81 147.35C1300.35 150.117 1299.45 152.517 1298.11 154.55C1296.78 156.55 1295.01 158.1 1292.81 159.2C1290.65 160.267 1288.08 160.8 1285.11 160.8ZM1306.35 160V124.5H1312.85V141.45L1309.85 139.3H1330.75L1327.8 141.45V124.5H1334.3V160H1327.8V142.85L1330.75 144.95H1309.85L1312.85 142.85V160H1306.35Z" fill="white"/>
</g>
<defs>
<filter id="filter0_d_5682_7482" x="719" y="0" width="725" height="1032" filterUnits="userSpaceOnUse" color-interpolation-filters="sRGB">
<feFlood flood-opacity="0" result="BackgroundImageFix"/>
<feColorMatrix in="SourceAlpha" type="matrix" values="0 0 0 0 0 0 0 0 0 0 0 0 0 0 0 0 0 0 127 0" result="hardAlpha"/>
<feOffset dy="4"/>
<feGaussianBlur stdDeviation="2"/>
<feComposite in2="hardAlpha" operator="out"/>
<feColorMatrix type="matrix" values="0 0 0 0 0 0 0 0 0 0 0 0 0 0 0 0 0 0 0.25 0"/>
<feBlend mode="normal" in2="BackgroundImageFix" result="effect1_dropShadow_5682_7482"/>
<feBlend mode="normal" in="SourceGraphic" in2="effect1_dropShadow_5682_7482" result="shape"/>
</filter>
<linearGradient id="paint0_linear_5682_7482" x1="720" y1="0" x2="720" y2="1024" gradientUnits="userSpaceOnUse">
<stop stop-color="#153FA3"/>
<stop offset="1" stop-color="#142345"/>
</linearGradient>
<linearGradient id="paint1_linear_5682_7482" x1="1146" y1="143" x2="1391" y2="143" gradientUnits="userSpaceOnUse">
<stop stop-color="#153FA3"/>
<stop offset="1" stop-color="#142345"/>
</linearGradient>
<clipPath id="clip0_5682_7482">
<rect width="1440" height="1024" fill="white"/>
</clipPath>
</defs>
</svg>
