<svg width="765" height="461" viewBox="0 0 765 461" fill="none" xmlns="http://www.w3.org/2000/svg">
<path d="M0 12C0 5.37258 5.37258 0 12 0H753C759.627 0 765 5.37258 765 12V449C765 455.627 759.627 461 753 461H12C5.37258 461 0 455.627 0 449V12Z" fill="url(#paint0_linear_5703_81)"/>
<path d="M662.751 420.483C663.29 419.564 664.275 419 665.34 419H762C763.657 419 765 420.343 765 422V451C765 456.523 760.523 461 755 461H644.236C641.918 461 640.476 458.483 641.648 456.483L662.751 420.483Z" fill="#DDDDDD"/>
<defs>
<linearGradient id="paint0_linear_5703_81" x1="7.94926" y1="20.5129" x2="791.433" y2="288.799" gradientUnits="userSpaceOnUse">
<stop offset="0.102869" stop-color="#142345"/>
<stop offset="0.588668" stop-color="#263C70"/>
<stop offset="0.635882" stop-color="#2F4169" stop-opacity="0.985308"/>
<stop offset="0.714012" stop-color="#505550" stop-opacity="0.929615"/>
<stop offset="0.785158" stop-color="#84742A" stop-opacity="0.842654"/>
<stop offset="0.861796" stop-color="#BB9600" stop-opacity="0.75"/>
<stop offset="1" stop-color="#B17B30"/>
</linearGradient>
</defs>
</svg>
