<svg width="721" height="1024" viewBox="0 0 721 1024" fill="none" xmlns="http://www.w3.org/2000/svg">
<g filter="url(#filter0_d_5682_7517)">
<path d="M162.5 0H721V1024H126L4 585L162.5 0Z" fill="white"/>
</g>
<path d="M237.81 166V119.85H269.66V128.17H242.23L247.69 122.515V143.64L242.23 139.35H268.49V147.54H242.23L247.69 143.25V166H237.81ZM276.213 166V119.85H296.428C299.808 119.85 302.733 120.413 305.203 121.54C307.717 122.667 309.645 124.27 310.988 126.35C312.332 128.387 313.003 130.813 313.003 133.63C313.003 135.753 312.548 137.638 311.638 139.285C310.772 140.932 309.558 142.275 307.998 143.315C306.482 144.355 304.727 145.005 302.733 145.265L302.538 144.68C305.615 144.68 307.955 145.352 309.558 146.695C311.162 147.995 312.072 150.01 312.288 152.74L313.458 166H303.383L302.538 154.3C302.408 152.523 301.845 151.223 300.848 150.4C299.895 149.533 298.248 149.1 295.908 149.1H286.093V166H276.213ZM286.093 140.845H295.323C297.707 140.845 299.548 140.303 300.848 139.22C302.192 138.093 302.863 136.512 302.863 134.475C302.863 132.395 302.192 130.835 300.848 129.795C299.505 128.712 297.555 128.17 294.998 128.17H286.093V140.845ZM321.536 166V119.85H353.646V128.17H331.416V138.765H352.866V146.955H331.416V157.68H354.166V166H321.536ZM361.78 166V119.85H393.89V128.17H371.66V138.765H393.11V146.955H371.66V157.68H394.41V166H361.78Z" fill="#142345"/>
<path d="M427 114C427 111.239 429.239 109 432 109H634.971C636.272 109 637.522 109.507 638.455 110.414L668.308 139.414C670.33 141.377 670.33 144.623 668.308 146.586L638.455 175.586C637.522 176.493 636.272 177 634.971 177H432C429.239 177 427 174.761 427 172V114Z" fill="url(#paint0_linear_5682_7517)"/>
<rect x="640" y="135" width="15" height="15" rx="7.5" fill="white"/>
<path d="M452 160V124.5H458.5V158L454.95 154.35H475.35V160H452ZM492.647 160.8C489.781 160.8 487.264 160.25 485.097 159.15C482.964 158.05 481.314 156.5 480.147 154.5C479.014 152.467 478.447 150.067 478.447 147.3V124.45H484.947V147.3C484.947 149.8 485.614 151.733 486.947 153.1C488.281 154.467 490.181 155.15 492.647 155.15C495.114 155.15 497.014 154.467 498.347 153.1C499.714 151.733 500.397 149.8 500.397 147.3V124.45H506.897V147.3C506.897 150.067 506.314 152.467 505.147 154.5C503.981 156.5 502.331 158.05 500.197 159.15C498.097 160.25 495.581 160.8 492.647 160.8ZM514.891 160V124.5H522.491L537.791 151.2V124.5H544.291V160H536.491L521.391 134.05V160H514.891ZM566.112 160.8C562.878 160.8 560.028 160.067 557.562 158.6C555.095 157.1 553.162 154.983 551.762 152.25C550.362 149.483 549.662 146.167 549.662 142.3C549.662 138.5 550.345 135.217 551.712 132.45C553.078 129.65 554.995 127.5 557.462 126C559.928 124.467 562.828 123.7 566.162 123.7C570.695 123.7 574.212 124.833 576.712 127.1C579.212 129.333 580.845 132.467 581.612 136.5L574.812 136.85C574.378 134.517 573.445 132.683 572.012 131.35C570.578 130.017 568.628 129.35 566.162 129.35C564.162 129.35 562.428 129.883 560.962 130.95C559.495 132.017 558.362 133.517 557.562 135.45C556.762 137.383 556.362 139.667 556.362 142.3C556.362 144.967 556.762 147.267 557.562 149.2C558.395 151.1 559.545 152.567 561.012 153.6C562.478 154.633 564.178 155.15 566.112 155.15C568.745 155.15 570.778 154.433 572.212 153C573.678 151.533 574.612 149.533 575.012 147L581.812 147.35C581.345 150.117 580.445 152.517 579.112 154.55C577.778 156.55 576.012 158.1 573.812 159.2C571.645 160.267 569.078 160.8 566.112 160.8ZM587.352 160V124.5H593.852V141.45L590.852 139.3H611.752L608.802 141.45V124.5H615.302V160H608.802V142.85L611.752 144.95H590.852L593.852 142.85V160H587.352Z" fill="white"/>
<defs>
<filter id="filter0_d_5682_7517" x="0" y="0" width="725" height="1032" filterUnits="userSpaceOnUse" color-interpolation-filters="sRGB">
<feFlood flood-opacity="0" result="BackgroundImageFix"/>
<feColorMatrix in="SourceAlpha" type="matrix" values="0 0 0 0 0 0 0 0 0 0 0 0 0 0 0 0 0 0 127 0" result="hardAlpha"/>
<feOffset dy="4"/>
<feGaussianBlur stdDeviation="2"/>
<feComposite in2="hardAlpha" operator="out"/>
<feColorMatrix type="matrix" values="0 0 0 0 0 0 0 0 0 0 0 0 0 0 0 0 0 0 0.25 0"/>
<feBlend mode="normal" in2="BackgroundImageFix" result="effect1_dropShadow_5682_7517"/>
<feBlend mode="normal" in="SourceGraphic" in2="effect1_dropShadow_5682_7517" result="shape"/>
</filter>
<linearGradient id="paint0_linear_5682_7517" x1="427" y1="143" x2="672" y2="143" gradientUnits="userSpaceOnUse">
<stop stop-color="#153FA3"/>
<stop offset="1" stop-color="#142345"/>
</linearGradient>
</defs>
</svg>
