<svg width="47" height="47" viewBox="0 0 47 47" fill="none" xmlns="http://www.w3.org/2000/svg">
<path d="M5.875 23.5H7.83333M23.5 5.875V7.83333M39.1667 23.5H41.125M23.5 39.1667V41.125M10.9667 10.9667L12.3375 12.3375M36.0333 10.9667L34.6625 12.3375M34.6625 34.6625L36.0333 36.0333M12.3375 34.6625L10.9667 36.0333M15.6667 23.5C15.6667 25.5775 16.492 27.57 17.961 29.039C19.43 30.508 21.4225 31.3333 23.5 31.3333C25.5775 31.3333 27.57 30.508 29.039 29.039C30.508 27.57 31.3333 25.5775 31.3333 23.5C31.3333 21.4225 30.508 19.43 29.039 17.961C27.57 16.492 25.5775 15.6667 23.5 15.6667C21.4225 15.6667 19.43 16.492 17.961 17.961C16.492 19.43 15.6667 21.4225 15.6667 23.5Z" stroke="url(#paint0_linear_4034_6382)" stroke-width="2" stroke-linecap="round" stroke-linejoin="round"/>
<defs>
<linearGradient id="paint0_linear_4034_6382" x1="23.5" y1="5.875" x2="23.5" y2="41.125" gradientUnits="userSpaceOnUse">
<stop stop-color="#2A86F8"/>
<stop offset="1" stop-color="#C49704"/>
</linearGradient>
</defs>
</svg>
