<svg width="416" height="90" viewBox="0 0 416 90" fill="none" xmlns="http://www.w3.org/2000/svg">
<rect width="416" height="90" rx="12" fill="#8B0000"/>
<path d="M93.57 58L101.25 36.7H106.65L114.33 58H109.59L108.03 53.47H99.84L98.28 58H93.57ZM101.13 49.72H106.77L103.95 41.5L101.13 49.72ZM117.536 58V36.7H122.096V56.77L119.576 54.16H131.906V58H117.536ZM135.135 58V36.7H144.465C146.025 36.7 147.375 36.96 148.515 37.48C149.675 38 150.565 38.74 151.185 39.7C151.805 40.64 152.115 41.76 152.115 43.06C152.115 44.04 151.905 44.91 151.485 45.67C151.085 46.43 150.525 47.05 149.805 47.53C149.105 48.01 148.295 48.31 147.375 48.43L147.285 48.16C148.705 48.16 149.785 48.47 150.525 49.09C151.265 49.69 151.685 50.62 151.785 51.88L152.325 58H147.675L147.285 52.6C147.225 51.78 146.965 51.18 146.505 50.8C146.065 50.4 145.305 50.2 144.225 50.2H139.695V58H135.135ZM139.695 46.39H143.955C145.055 46.39 145.905 46.14 146.505 45.64C147.125 45.12 147.435 44.39 147.435 43.45C147.435 42.49 147.125 41.77 146.505 41.29C145.885 40.79 144.985 40.54 143.805 40.54H139.695V46.39ZM156.953 58V36.7H171.773V40.54H161.513V45.43H171.413V49.21H161.513V54.16H172.013V58H156.953ZM174.865 58L182.545 36.7H187.945L195.625 58H190.885L189.325 53.47H181.135L179.575 58H174.865ZM182.425 49.72H188.065L185.245 41.5L182.425 49.72ZM198.568 58V36.7H205.918C209.378 36.7 212.038 37.63 213.898 39.49C215.758 41.33 216.688 43.96 216.688 47.38C216.688 50.78 215.768 53.4 213.928 55.24C212.108 57.08 209.498 58 206.098 58H198.568ZM203.128 54.16H205.918C207.978 54.16 209.498 53.61 210.478 52.51C211.478 51.39 211.978 49.67 211.978 47.35C211.978 45.03 211.478 43.32 210.478 42.22C209.498 41.1 207.978 40.54 205.918 40.54H203.128V54.16ZM224.663 58V49.72L217.253 36.7H222.293L226.943 45.28L231.563 36.7H236.603L229.223 49.72V58H224.663ZM256.264 58.48C254.324 58.48 252.594 58.04 251.074 57.16C249.574 56.28 248.394 55.01 247.534 53.35C246.694 51.69 246.274 49.7 246.274 47.38C246.274 45.12 246.684 43.16 247.504 41.5C248.324 39.82 249.494 38.52 251.014 37.6C252.534 36.68 254.314 36.22 256.354 36.22C259.134 36.22 261.294 36.91 262.834 38.29C264.394 39.65 265.394 41.6 265.834 44.14L261.094 44.32C260.854 42.98 260.334 41.94 259.534 41.2C258.734 40.44 257.674 40.06 256.354 40.06C255.214 40.06 254.244 40.36 253.444 40.96C252.644 41.56 252.034 42.41 251.614 43.51C251.194 44.61 250.984 45.9 250.984 47.38C250.984 48.88 251.194 50.18 251.614 51.28C252.054 52.36 252.674 53.19 253.474 53.77C254.274 54.35 255.224 54.64 256.324 54.64C257.764 54.64 258.874 54.24 259.654 53.44C260.454 52.62 260.954 51.49 261.154 50.05L265.924 50.23C265.644 51.97 265.094 53.45 264.274 54.67C263.454 55.89 262.374 56.83 261.034 57.49C259.714 58.15 258.124 58.48 256.264 58.48ZM269.99 58V36.7H274.55V56.77L272.03 54.16H284.36V58H269.99ZM286.32 58L294 36.7H299.4L307.08 58H302.34L300.78 53.47H292.59L291.03 58H286.32ZM293.88 49.72H299.52L296.7 41.5L293.88 49.72ZM310.022 58V36.7H314.582V58H310.022ZM319.506 58V36.7H325.596L331.026 52.21L336.426 36.7H342.516V58H337.956V44.2L332.946 57.94H329.046L324.066 44.2V58H319.506ZM347.447 58V36.7H362.267V40.54H352.007V45.43H361.907V49.21H352.007V54.16H362.507V58H347.447ZM366.922 58V36.7H374.272C377.732 36.7 380.392 37.63 382.252 39.49C384.112 41.33 385.042 43.96 385.042 47.38C385.042 50.78 384.122 53.4 382.282 55.24C380.462 57.08 377.852 58 374.452 58H366.922ZM371.482 54.16H374.272C376.332 54.16 377.852 53.61 378.832 52.51C379.832 51.39 380.332 49.67 380.332 47.35C380.332 45.03 379.832 43.32 378.832 42.22C377.852 41.1 376.332 40.54 374.272 40.54H371.482V54.16Z" fill="white"/>
<path fill-rule="evenodd" clip-rule="evenodd" d="M56.5003 48.475C55.9146 48.475 55.3529 48.2423 54.9388 47.8282C54.5247 47.414 54.292 46.8523 54.292 46.2667V35.225C54.292 34.6393 54.5247 34.0776 54.9388 33.6635C55.3529 33.2493 55.9146 33.0167 56.5003 33.0167C57.086 33.0167 57.6477 33.2493 58.0619 33.6635C58.476 34.0776 58.7087 34.6393 58.7087 35.225V46.2667C58.7087 46.8523 58.476 47.414 58.0619 47.8282C57.6477 48.2423 57.086 48.475 56.5003 48.475Z" fill="white"/>
<path d="M54.1748 53.2406C54.1748 52.6239 54.4198 52.0324 54.8559 51.5963C55.292 51.1602 55.8835 50.9152 56.5002 50.9152C57.1169 50.9152 57.7084 51.1602 58.1445 51.5963C58.5806 52.0324 58.8256 52.6239 58.8256 53.2406C58.8256 53.8573 58.5806 54.4488 58.1445 54.8849C57.7084 55.321 57.1169 55.566 56.5002 55.566C55.8835 55.566 55.292 55.321 54.8559 54.8849C54.4198 54.4488 54.1748 53.8573 54.1748 53.2406Z" fill="white"/>
<path fill-rule="evenodd" clip-rule="evenodd" d="M64.4659 28.2511L77.442 51.9244C80.781 58.0172 76.3975 65.4792 69.4766 65.4792H43.5242C36.6033 65.4792 32.2176 58.015 35.5588 51.9222L48.535 28.2489C51.9932 21.9441 61.0076 21.9441 64.4659 28.2489V28.2511ZM60.482 30.4594C58.7551 27.3037 54.2457 27.3037 52.5188 30.4594L39.5404 54.1283C37.8687 57.1758 40.0616 60.9057 43.522 60.9057H69.4744C72.9348 60.9057 75.1277 57.1736 73.456 54.1261L60.482 30.4594Z" fill="white"/>
</svg>
