<svg width="263" height="90" viewBox="0 0 263 90" fill="none" xmlns="http://www.w3.org/2000/svg">
<rect width="263" height="90" rx="12" fill="#ECFDED"/>
<path d="M87.22 56V34.7H102.04V38.54H91.78V43.43H101.68V47.21H91.78V52.16H102.28V56H87.22ZM106.782 56V34.7H111.342V54.77L108.822 52.16H121.152V56H106.782ZM124.381 56V34.7H128.941V56H124.381ZM142.687 56.48C140.627 56.48 138.867 56.01 137.407 55.07C135.947 54.13 134.817 52.83 134.017 51.17C133.237 49.49 132.847 47.56 132.847 45.38C132.847 43.24 133.247 41.33 134.047 39.65C134.847 37.97 135.997 36.65 137.497 35.69C139.017 34.71 140.837 34.22 142.957 34.22C144.797 34.22 146.347 34.53 147.607 35.15C148.887 35.75 149.907 36.61 150.667 37.73C151.427 38.85 151.957 40.17 152.257 41.69L147.547 41.9C147.327 40.72 146.857 39.79 146.137 39.11C145.437 38.41 144.387 38.06 142.987 38.06C141.767 38.06 140.747 38.38 139.927 39.02C139.127 39.66 138.527 40.53 138.127 41.63C137.747 42.73 137.557 43.98 137.557 45.38C137.557 46.8 137.747 48.06 138.127 49.16C138.527 50.24 139.127 51.09 139.927 51.71C140.747 52.33 141.797 52.64 143.077 52.64C144.017 52.64 144.827 52.45 145.507 52.07C146.207 51.69 146.747 51.17 147.127 50.51C147.527 49.85 147.767 49.1 147.847 48.26H142.987V44.93H152.317V56H149.497L149.257 51.44L149.797 51.68C149.597 52.62 149.157 53.45 148.477 54.17C147.797 54.89 146.957 55.46 145.957 55.88C144.977 56.28 143.887 56.48 142.687 56.48ZM156.855 56V34.7H161.415V56H156.855ZM166.339 56V34.7H174.619C177.259 34.7 179.279 35.17 180.679 36.11C182.079 37.03 182.779 38.49 182.779 40.49C182.779 41.37 182.599 42.14 182.239 42.8C181.879 43.44 181.349 43.95 180.649 44.33C179.969 44.71 179.139 44.94 178.159 45.02V44.96C179.939 45.08 181.299 45.6 182.239 46.52C183.199 47.42 183.679 48.62 183.679 50.12C183.679 52.1 182.979 53.58 181.579 54.56C180.199 55.52 178.219 56 175.639 56H166.339ZM170.899 52.28H175.429C176.529 52.28 177.409 52.06 178.069 51.62C178.749 51.16 179.089 50.48 179.089 49.58C179.089 48.68 178.749 48 178.069 47.54C177.409 47.06 176.529 46.82 175.429 46.82H170.899V52.28ZM170.899 43.52H174.499C175.619 43.52 176.509 43.3 177.169 42.86C177.849 42.42 178.189 41.79 178.189 40.97C178.189 40.09 177.859 39.45 177.199 39.05C176.559 38.63 175.659 38.42 174.499 38.42H170.899V43.52ZM188.333 56V34.7H192.893V54.77L190.373 52.16H202.703V56H188.333ZM205.932 56V34.7H220.752V38.54H210.492V43.43H220.392V47.21H210.492V52.16H220.992V56H205.932Z" fill="#037847"/>
<g clip-path="url(#clip0_6048_69)">
<path fill-rule="evenodd" clip-rule="evenodd" d="M49.0833 67.1667C51.9834 67.1667 54.855 66.5955 57.5343 65.4857C60.2135 64.3759 62.648 62.7492 64.6986 60.6986C66.7492 58.648 68.3759 56.2135 69.4857 53.5343C70.5955 50.855 71.1667 47.9834 71.1667 45.0833C71.1667 42.1833 70.5955 39.3117 69.4857 36.6324C68.3759 33.9531 66.7492 31.5187 64.6986 29.4681C62.648 27.4174 60.2135 25.7908 57.5343 24.681C54.855 23.5712 51.9834 23 49.0833 23C43.2265 23 37.6095 25.3266 33.4681 29.4681C29.3266 33.6095 27 39.2265 27 45.0833C27 50.9402 29.3266 56.5572 33.4681 60.6986C37.6095 64.84 43.2265 67.1667 49.0833 67.1667ZM48.5141 54.0148L60.7826 39.2926L57.0137 36.1519L46.4628 48.8105L41.0033 43.3486L37.5338 46.8181L44.8949 54.1792L46.794 56.0784L48.5141 54.0148Z" fill="#037847"/>
</g>
<defs>
<clipPath id="clip0_6048_69">
<rect x="24" y="14" width="53" height="53" rx="12" fill="white"/>
</clipPath>
</defs>
</svg>
