<svg width="478" height="111" viewBox="0 0 478 111" fill="none" xmlns="http://www.w3.org/2000/svg">
<path d="M24.81 79V32.85H56.66V41.17H29.23L34.69 35.515V56.64L29.23 52.35H55.49V60.54H29.23L34.69 56.25V79H24.81ZM63.2133 79V32.85H83.4283C86.8083 32.85 89.7333 33.4133 92.2033 34.54C94.7167 35.6667 96.645 37.27 97.9883 39.35C99.3317 41.3867 100.003 43.8133 100.003 46.63C100.003 48.7533 99.5483 50.6383 98.6383 52.285C97.7717 53.9317 96.5583 55.275 94.9983 56.315C93.4817 57.355 91.7267 58.005 89.7333 58.265L89.5383 57.68C92.615 57.68 94.955 58.3517 96.5583 59.695C98.1617 60.995 99.0717 63.01 99.2883 65.74L100.458 79H90.3833L89.5383 67.3C89.4083 65.5233 88.845 64.2233 87.8483 63.4C86.895 62.5333 85.2483 62.1 82.9083 62.1H73.0933V79H63.2133ZM73.0933 53.845H82.3233C84.7067 53.845 86.5483 53.3033 87.8483 52.22C89.1917 51.0933 89.8633 49.5117 89.8633 47.475C89.8633 45.395 89.1917 43.835 87.8483 42.795C86.505 41.7117 84.555 41.17 81.9983 41.17H73.0933V53.845ZM108.536 79V32.85H140.646V41.17H118.416V51.765H139.866V59.955H118.416V70.68H141.166V79H108.536ZM148.78 79V32.85H180.89V41.17H158.66V51.765H180.11V59.955H158.66V70.68H181.41V79H148.78Z" fill="#142345"/>
<path d="M214 27C214 24.2386 216.239 22 219 22H421.971C423.272 22 424.522 22.5071 425.455 23.4136L455.308 52.4136C457.33 54.3773 457.33 57.6227 455.308 59.5864L425.455 88.5864C424.522 89.4929 423.272 90 421.971 90H219C216.239 90 214 87.7614 214 85V27Z" fill="url(#paint0_linear_5021_7336)"/>
<rect x="427" y="48" width="15" height="15" rx="7.5" fill="white"/>
<path d="M239 73V37.5H245.5V71L241.95 67.35H262.35V73H239ZM279.647 73.8C276.781 73.8 274.264 73.25 272.097 72.15C269.964 71.05 268.314 69.5 267.147 67.5C266.014 65.4667 265.447 63.0667 265.447 60.3V37.45H271.947V60.3C271.947 62.8 272.614 64.7333 273.947 66.1C275.281 67.4667 277.181 68.15 279.647 68.15C282.114 68.15 284.014 67.4667 285.347 66.1C286.714 64.7333 287.397 62.8 287.397 60.3V37.45H293.897V60.3C293.897 63.0667 293.314 65.4667 292.147 67.5C290.981 69.5 289.331 71.05 287.197 72.15C285.097 73.25 282.581 73.8 279.647 73.8ZM301.891 73V37.5H309.491L324.791 64.2V37.5H331.291V73H323.491L308.391 47.05V73H301.891ZM353.112 73.8C349.878 73.8 347.028 73.0667 344.562 71.6C342.095 70.1 340.162 67.9833 338.762 65.25C337.362 62.4833 336.662 59.1667 336.662 55.3C336.662 51.5 337.345 48.2167 338.712 45.45C340.078 42.65 341.995 40.5 344.462 39C346.928 37.4667 349.828 36.7 353.162 36.7C357.695 36.7 361.212 37.8333 363.712 40.1C366.212 42.3333 367.845 45.4667 368.612 49.5L361.812 49.85C361.378 47.5167 360.445 45.6833 359.012 44.35C357.578 43.0167 355.628 42.35 353.162 42.35C351.162 42.35 349.428 42.8833 347.962 43.95C346.495 45.0167 345.362 46.5167 344.562 48.45C343.762 50.3833 343.362 52.6667 343.362 55.3C343.362 57.9667 343.762 60.2667 344.562 62.2C345.395 64.1 346.545 65.5667 348.012 66.6C349.478 67.6333 351.178 68.15 353.112 68.15C355.745 68.15 357.778 67.4333 359.212 66C360.678 64.5333 361.612 62.5333 362.012 60L368.812 60.35C368.345 63.1167 367.445 65.5167 366.112 67.55C364.778 69.55 363.012 71.1 360.812 72.2C358.645 73.2667 356.078 73.8 353.112 73.8ZM374.352 73V37.5H380.852V54.45L377.852 52.3H398.752L395.802 54.45V37.5H402.302V73H395.802V55.85L398.752 57.95H377.852L380.852 55.85V73H374.352Z" fill="white"/>
<defs>
<linearGradient id="paint0_linear_5021_7336" x1="214" y1="56" x2="459" y2="56" gradientUnits="userSpaceOnUse">
<stop stop-color="#153FA3"/>
<stop offset="1" stop-color="#142345"/>
</linearGradient>
</defs>
</svg>
