<svg width="296" height="90" viewBox="0 0 296 90" fill="none" xmlns="http://www.w3.org/2000/svg">
<rect width="296" height="90" rx="12" fill="#8B0000"/>
<path d="M93.22 56V34.7H97.78V56H93.22ZM102.704 56V34.7H107.744L116.204 49.4V34.7H120.764V56H115.664L107.264 41.81V56H102.704ZM125.694 56V34.7H140.514V38.54H130.254V43.43H140.154V47.21H130.254V52.16H140.754V56H125.694ZM145.256 56V34.7H149.816V54.77L147.296 52.16H159.626V56H145.256ZM162.855 56V34.7H167.415V56H162.855ZM181.161 56.48C179.101 56.48 177.341 56.01 175.881 55.07C174.421 54.13 173.291 52.83 172.491 51.17C171.711 49.49 171.321 47.56 171.321 45.38C171.321 43.24 171.721 41.33 172.521 39.65C173.321 37.97 174.471 36.65 175.971 35.69C177.491 34.71 179.311 34.22 181.431 34.22C183.271 34.22 184.821 34.53 186.081 35.15C187.361 35.75 188.381 36.61 189.141 37.73C189.901 38.85 190.431 40.17 190.731 41.69L186.021 41.9C185.801 40.72 185.331 39.79 184.611 39.11C183.911 38.41 182.861 38.06 181.461 38.06C180.241 38.06 179.221 38.38 178.401 39.02C177.601 39.66 177.001 40.53 176.601 41.63C176.221 42.73 176.031 43.98 176.031 45.38C176.031 46.8 176.221 48.06 176.601 49.16C177.001 50.24 177.601 51.09 178.401 51.71C179.221 52.33 180.271 52.64 181.551 52.64C182.491 52.64 183.301 52.45 183.981 52.07C184.681 51.69 185.221 51.17 185.601 50.51C186.001 49.85 186.241 49.1 186.321 48.26H181.461V44.93H190.791V56H187.971L187.731 51.44L188.271 51.68C188.071 52.62 187.631 53.45 186.951 54.17C186.271 54.89 185.431 55.46 184.431 55.88C183.451 56.28 182.361 56.48 181.161 56.48ZM195.329 56V34.7H199.889V56H195.329ZM204.813 56V34.7H213.093C215.733 34.7 217.753 35.17 219.153 36.11C220.553 37.03 221.253 38.49 221.253 40.49C221.253 41.37 221.073 42.14 220.713 42.8C220.353 43.44 219.823 43.95 219.123 44.33C218.443 44.71 217.613 44.94 216.633 45.02V44.96C218.413 45.08 219.773 45.6 220.713 46.52C221.673 47.42 222.153 48.62 222.153 50.12C222.153 52.1 221.453 53.58 220.053 54.56C218.673 55.52 216.693 56 214.113 56H204.813ZM209.373 52.28H213.903C215.003 52.28 215.883 52.06 216.543 51.62C217.223 51.16 217.563 50.48 217.563 49.58C217.563 48.68 217.223 48 216.543 47.54C215.883 47.06 215.003 46.82 213.903 46.82H209.373V52.28ZM209.373 43.52H212.973C214.093 43.52 214.983 43.3 215.643 42.86C216.323 42.42 216.663 41.79 216.663 40.97C216.663 40.09 216.333 39.45 215.673 39.05C215.033 38.63 214.133 38.42 212.973 38.42H209.373V43.52ZM226.807 56V34.7H231.367V54.77L228.847 52.16H241.177V56H226.807ZM244.406 56V34.7H259.226V38.54H248.966V43.43H258.866V47.21H248.966V52.16H259.466V56H244.406Z" fill="white"/>
<path fill-rule="evenodd" clip-rule="evenodd" d="M54.5003 46.4749C53.9146 46.4749 53.3529 46.2423 52.9388 45.8281C52.5247 45.414 52.292 44.8523 52.292 44.2666V33.2249C52.292 32.6392 52.5247 32.0775 52.9388 31.6634C53.3529 31.2493 53.9146 31.0166 54.5003 31.0166C55.086 31.0166 55.6477 31.2493 56.0619 31.6634C56.476 32.0775 56.7087 32.6392 56.7087 33.2249V44.2666C56.7087 44.8523 56.476 45.414 56.0619 45.8281C55.6477 46.2423 55.086 46.4749 54.5003 46.4749Z" fill="white"/>
<path d="M52.1748 51.2405C52.1748 50.6238 52.4198 50.0323 52.8559 49.5962C53.292 49.1602 53.8835 48.9152 54.5002 48.9152C55.1169 48.9152 55.7084 49.1602 56.1445 49.5962C56.5806 50.0323 56.8256 50.6238 56.8256 51.2405C56.8256 51.8573 56.5806 52.4487 56.1445 52.8848C55.7084 53.3209 55.1169 53.5659 54.5002 53.5659C53.8835 53.5659 53.292 53.3209 52.8559 52.8848C52.4198 52.4487 52.1748 51.8573 52.1748 51.2405Z" fill="white"/>
<path fill-rule="evenodd" clip-rule="evenodd" d="M62.4659 26.2511L75.442 49.9244C78.781 56.0172 74.3975 63.4791 67.4766 63.4791H41.5242C34.6033 63.4791 30.2176 56.015 33.5588 49.9222L46.535 26.2489C49.9932 19.9441 59.0076 19.9441 62.4659 26.2489V26.2511ZM58.482 28.4594C56.7551 25.3037 52.2457 25.3037 50.5188 28.4594L37.5404 52.1283C35.8687 55.1758 38.0616 58.9057 41.522 58.9057H67.4744C70.9348 58.9057 73.1277 55.1736 71.456 52.1261L58.482 28.4594Z" fill="white"/>
</svg>
